<?xml version="1.0" encoding="UTF-8"?>
<svg version="1.1" xmlns="http://www.w3.org/2000/svg" width="512" height="512">
<path d="M0 0 C6.906399 4.9023829 12.97571772 10.60163753 19.00390625 16.52734375 C19.92662827 17.43392227 20.84935028 18.34050079 21.80003357 19.27455139 C23.74113932 21.18585847 25.67720837 23.10213217 27.61108398 25.02075195 C29.5691362 26.96112607 31.53847837 28.88877475 33.51928711 30.8059082 C60.88645198 57.31206225 60.88645198 57.31206225 61.29248047 77.26049805 C61.40647263 93.21522987 57.61046553 105.26570324 46.41209412 117.09406376 C44.59069216 118.93857676 42.76085427 120.77060667 40.91967773 122.59498596 C39.89655895 123.62343977 38.87431019 124.65275969 37.85284996 125.68286079 C35.06335643 128.49088247 32.26164605 131.28642096 29.45762849 134.07992923 C26.42775519 137.10278229 23.40944249 140.13714278 20.38957214 143.16998291 C14.47865115 149.10250398 8.55693969 155.02413834 2.63113779 160.94179172 C-2.18842833 165.7550468 -7.00424584 170.57202252 -11.81744385 175.39164543 C-12.50365374 176.07875698 -13.18986362 176.76586852 -13.89686775 177.47380162 C-15.29111692 178.8699021 -16.68536046 180.26600819 -18.07959843 181.66211986 C-31.14430008 194.74338695 -44.22160474 207.81199704 -57.30301571 220.87655156 C-69.25224592 232.81109532 -81.18676726 244.76022201 -93.1142205 256.71652652 C-105.37909353 269.0108443 -117.65320687 281.29586376 -129.93757725 293.57070106 C-131.32907549 294.96117682 -132.72055981 296.35166653 -134.11203003 297.74217033 C-134.79655359 298.4262175 -135.48107715 299.11026467 -136.18634385 299.81504055 C-140.99215056 304.61868933 -145.79196811 309.42827196 -150.58938599 314.24029732 C-156.44471559 320.11320725 -162.30888299 325.97711911 -168.18433791 331.82989759 C-171.17766891 334.81213656 -174.16697685 337.79811678 -177.14539528 340.79525566 C-179.87992363 343.5467485 -182.6260343 346.28613494 -185.38125694 349.01690053 C-186.83036694 350.4589156 -188.26739051 351.91304653 -189.70372868 353.36778361 C-208.1081701 371.51579159 -230.12076996 379.68150794 -255.66015625 379.53125 C-257.30586475 379.53395334 -258.95157167 379.53784271 -260.59727478 379.54284668 C-264.01349387 379.54868734 -267.42928972 379.54034701 -270.84545898 379.52148438 C-275.21332142 379.49853337 -279.58020913 379.51195289 -283.94803715 379.53577423 C-287.33248732 379.55024157 -290.71670668 379.54562482 -294.10116386 379.53526306 C-295.71224524 379.53260678 -297.32334797 379.53582665 -298.93440437 379.54518127 C-301.18087492 379.55538131 -303.4257659 379.53980786 -305.67211914 379.51757812 C-306.94591934 379.51439575 -308.21971954 379.51121338 -309.53211975 379.50793457 C-314.98549959 378.70918722 -317.85133349 376.36899818 -321.34265137 372.20799255 C-323.30201182 368.41542072 -323.50694511 365.92817005 -323.51757812 361.67211914 C-323.52809204 360.6096698 -323.52809204 360.6096698 -323.53881836 359.52575684 C-323.55634941 357.19515146 -323.54478277 354.86577306 -323.53125 352.53515625 C-323.53394903 350.89814524 -323.53783487 349.26113581 -323.54284668 347.62413025 C-323.54873739 344.19189196 -323.54020291 340.76007055 -323.52148438 337.32788086 C-323.49885716 332.97072812 -323.5117161 328.61456998 -323.53577423 324.25745487 C-323.55038371 320.87262289 -323.5455551 317.48801769 -323.53526306 314.10317802 C-323.53262882 312.49953527 -323.53574658 310.89587066 -323.54518127 309.29225349 C-323.6731119 281.40445935 -312.402659 261.5753507 -293.14109898 242.0068779 C-291.36246551 240.21896802 -289.58120339 238.43367048 -287.79774475 236.65057373 C-286.79869981 235.64821961 -285.79986448 234.64565655 -284.80121797 233.64290547 C-282.08389849 230.91567968 -279.36353725 228.19150666 -276.64259636 225.46789455 C-273.69805933 222.5194209 -270.75634563 219.56813236 -267.81419373 216.61727905 C-260.72740562 209.51083306 -253.63586504 202.40913895 -246.54370108 195.30805862 C-243.19798158 191.95794357 -239.85274621 188.60734517 -236.50744438 185.25681305 C-225.380433 174.11280935 -214.25217404 162.97005368 -203.12029362 151.83091354 C-200.23912176 148.94783209 -197.35795531 146.06474524 -194.47680664 143.18164062 C-193.76079048 142.46514073 -193.04477433 141.74864083 -192.30706071 141.01042882 C-180.69363093 129.38868838 -169.08875313 117.75844726 -157.48739965 106.12465295 C-145.55936914 94.16354151 -133.62381205 82.20998277 -121.68082708 70.26380277 C-114.98208186 63.56289474 -108.28665105 56.8587474 -101.59962654 50.14614105 C-95.90936151 44.43415598 -90.21229837 38.72906242 -84.50630552 33.03278682 C-81.59769737 30.12871785 -78.69238483 27.22154597 -75.79578018 24.30550003 C-73.14021963 21.63227056 -70.47545838 18.96857458 -67.80331104 16.31192818 C-66.38977188 14.90187539 -64.98602772 13.48202396 -63.582748 12.06176066 C-46.79858306 -4.55441632 -21.85103823 -12.12466146 0 0 Z M-41.11419678 36.53397846 C-42.73037755 38.16431769 -44.33400293 39.80641099 -45.9375 41.44921875 C-47.06839885 42.58945554 -48.20041601 43.72858417 -49.33349609 44.86665344 C-52.29722496 47.8493747 -55.24562249 50.84680621 -58.190979 53.84765625 C-61.20536644 56.91340391 -64.23414987 59.964857 -67.26171875 63.01757812 C-73.18858569 68.99789566 -79.0993175 74.99384567 -85 81 C-79.38062338 87.85907115 -73.09685489 94.03009491 -66.8203125 100.27734375 C-65.64039553 101.45539258 -64.46070142 102.63366466 -63.28121948 103.81214905 C-60.19610309 106.89347142 -57.10799411 109.97177716 -54.01922607 113.04943848 C-50.85994267 116.19844034 -47.70353484 119.35032171 -44.546875 122.50195312 C-38.36737473 128.6707711 -32.1847061 134.83640129 -26 141 C-19.84264634 135.90152739 -14.19465962 130.3582918 -8.54296875 124.7109375 C-7.54892454 123.72011311 -6.55480805 122.72936122 -5.56062317 121.73867798 C-3.49054986 119.6745548 -1.42251517 117.6084138 0.64428711 115.54101562 C3.28990832 112.89529222 5.94237912 110.25655084 8.59660816 107.61946678 C10.64607249 105.58111976 12.69097697 103.53824517 14.73462486 101.49406815 C15.71101236 100.51885818 16.68901608 99.54526352 17.66868019 98.57334518 C19.03492414 97.2169092 20.3942076 95.8534733 21.75317383 94.48974609 C22.52703934 93.7173056 23.30090485 92.94486511 24.09822083 92.14901733 C27.39840595 88.41979623 28.30568421 85.57414715 28.375 80.625 C28.40335937 79.70976562 28.43171875 78.79453125 28.4609375 77.8515625 C27.26472366 70.45125654 20.40119626 65.06359264 15.359375 59.98828125 C14.51836243 59.1382402 13.67734985 58.28819916 12.81085205 57.41239929 C11.03499651 55.62207505 9.25634948 53.83451594 7.47509766 52.04956055 C4.76089753 49.32344537 2.06592507 46.57923005 -0.62890625 43.83398438 C-2.3608257 42.09260204 -4.09386222 40.35232985 -5.828125 38.61328125 C-7.02698334 37.38512444 -7.02698334 37.38512444 -8.25006104 36.13215637 C-19.77735268 24.69617225 -29.78957727 25.30290185 -41.11419678 36.53397846 Z M-113.54587615 109.39814645 C-114.19964968 110.05210434 -114.85342321 110.70606224 -115.52700806 111.37983704 C-116.21712742 112.06627971 -116.90724679 112.75272239 -117.61827886 113.45996636 C-119.95058814 115.78118513 -122.27924069 118.10603835 -124.60791016 120.4309082 C-126.27136763 122.08810474 -127.93501751 123.74510816 -129.59884644 125.40193176 C-134.60873579 130.39254597 -139.61426835 135.38751448 -144.61897141 140.38332894 C-146.97675664 142.73673298 -149.33503524 145.08964254 -151.69324875 147.44261742 C-159.5359476 155.26829343 -167.37737975 163.09523544 -175.21518898 170.92580891 C-177.25103458 172.95974462 -179.2868854 174.99367511 -181.32275391 177.02758789 C-182.08175816 177.78586654 -182.08175816 177.78586654 -182.85609584 178.55946394 C-191.03753323 186.73261644 -199.22744446 194.89722159 -207.4209853 203.0582386 C-215.8369945 211.44111379 -224.24539519 219.83156025 -232.64644849 228.22942418 C-237.36170449 232.94251992 -242.08039554 237.6520879 -246.80714798 242.35366249 C-251.25968461 246.78286681 -255.70253948 251.22156116 -260.13829422 255.66757011 C-261.76375953 257.29352974 -263.39262148 258.91610231 -265.02519989 260.53491974 C-280.70758954 276.09254762 -290.84675426 289.77256219 -291.11352539 312.71533203 C-291.11337071 314.31283427 -291.10794366 315.91034338 -291.09765625 317.5078125 C-291.0962413 318.35930878 -291.09482635 319.21080505 -291.09336853 320.08810425 C-291.08783919 322.76710759 -291.07530074 325.44602257 -291.0625 328.125 C-291.05747584 329.95833211 -291.05291455 331.79166556 -291.04882812 333.625 C-291.03789306 338.08336659 -291.02067872 342.54166839 -291 347 C-285.54143561 347.04999037 -280.08300881 347.08599471 -274.62426758 347.10986328 C-272.77300694 347.11982926 -270.92176165 347.13340693 -269.07055664 347.15087891 C-244.95653398 347.37252713 -228.19104363 344.03398386 -210.48478866 326.70534992 C-206.81771816 323.07436184 -203.17492323 319.41955957 -199.53466797 315.76171875 C-197.88832364 314.11480953 -196.24153732 312.46834206 -194.59434509 310.82228088 C-190.14637589 306.37488316 -185.70458016 301.92136641 -181.26390219 297.46669006 C-177.08553491 293.27705364 -172.90252438 289.09206243 -168.71954621 284.90703034 C-160.44094306 276.62406263 -152.16680518 268.33664947 -143.89550781 260.04638672 C-135.86629236 251.99878026 -127.83495445 243.95330166 -119.80078125 235.91064453 C-119.30458022 235.41391806 -118.8083792 234.91719158 -118.29714178 234.40541279 C-115.80754275 231.91320347 -113.31790224 229.4210356 -110.82824111 226.92888832 C-90.21239336 206.2923467 -69.60387921 185.64849109 -49 165 C-49.94215254 163.89190601 -50.88559641 162.78490989 -51.82956982 161.67836666 C-52.35480871 161.06178847 -52.88004761 160.44521028 -53.42120284 159.80994791 C-55.68681283 157.21263132 -58.09488427 154.77781564 -60.53051758 152.34008789 C-61.04672668 151.82212646 -61.56293579 151.30416504 -62.0947876 150.77050781 C-63.77555539 149.08539271 -65.45988927 147.40389755 -67.14453125 145.72265625 C-68.3219793 144.54453373 -69.49927895 143.36626286 -70.67643738 142.18785095 C-73.12992087 139.7329007 -75.58518541 137.27974982 -78.04174805 134.82788086 C-81.19720734 131.67815616 -84.34810516 128.5239122 -87.49771595 125.36834049 C-89.92102626 122.94142906 -92.34669773 120.51688894 -94.77310753 118.09307671 C-95.93691179 116.92994101 -97.09996958 115.76605794 -98.2622776 114.60142708 C-99.87793763 112.98324386 -101.49673949 111.36827277 -103.11645508 109.75415039 C-104.49828728 108.37351158 -104.49828728 108.37351158 -105.90803528 106.96498108 C-109.6472942 103.45269765 -110.31596515 106.19264574 -113.54587615 109.39814645 Z " fill="#000000" transform="translate(387,69)"/>
<path d="M0 0 C1.05489624 -0.00935994 1.05489624 -0.00935994 2.13110352 -0.01890898 C4.47576936 -0.03479977 6.81938988 -0.02225106 9.1640625 -0.00964355 C10.84977828 -0.01506645 12.53548932 -0.02219005 14.22119141 -0.03088379 C18.79145963 -0.04910026 23.36136618 -0.04205658 27.93164062 -0.02936745 C32.71745774 -0.01923109 37.50324416 -0.02863489 42.2890625 -0.03491211 C50.32557731 -0.04218666 58.36194503 -0.03260586 66.3984375 -0.0135498 C75.68597197 0.00821857 84.97315519 0.00116706 94.26068115 -0.02085543 C102.23877974 -0.0390149 110.21677267 -0.04156507 118.19488525 -0.03110075 C122.95810706 -0.02486883 127.72116384 -0.02402189 132.484375 -0.0372467 C136.96279317 -0.04881255 141.44075904 -0.04076615 145.91912842 -0.01766968 C147.56141408 -0.0123865 149.20373788 -0.01388971 150.8460083 -0.02272034 C153.09055875 -0.03367555 155.33366615 -0.01991476 157.578125 0 C158.83318848 0.0015081 160.08825195 0.0030162 161.38134766 0.00457001 C166.5664884 0.77048389 169.61909387 3.27638864 173.1640625 7.00793457 C175.56209825 12.17293466 175.54287785 16.90816337 174.7890625 22.50793457 C172.47916652 27.48309515 169.50950231 29.82698187 164.7890625 32.50793457 C161.38134766 33.01129913 161.38134766 33.01129913 157.578125 33.01586914 C156.52322876 33.02522908 156.52322876 33.02522908 155.44702148 33.03477812 C153.10235564 33.05066891 150.75873512 33.0381202 148.4140625 33.0255127 C146.72834672 33.03093559 145.04263568 33.03805919 143.35693359 33.04675293 C138.78666537 33.0649694 134.21675882 33.05792572 129.64648438 33.04523659 C124.86066726 33.03510023 120.07488084 33.04450404 115.2890625 33.05078125 C107.25254769 33.0580558 99.21617997 33.048475 91.1796875 33.02941895 C81.89215303 33.00765057 72.60496981 33.01470208 63.31744385 33.03672457 C55.33934526 33.05488404 47.36135233 33.05743421 39.38323975 33.04696989 C34.62001794 33.04073798 29.85696116 33.03989103 25.09375 33.05311584 C20.61533183 33.06468169 16.13736596 33.05663529 11.65899658 33.03353882 C10.01671092 33.02825564 8.37438712 33.02975885 6.7321167 33.03858948 C4.48756625 33.04954469 2.24445885 33.0357839 0 33.01586914 C-1.25506348 33.01436104 -2.51012695 33.01285294 -3.80322266 33.01129913 C-8.9883634 32.24538525 -12.04096887 29.7394805 -15.5859375 26.00793457 C-17.98397325 20.84293448 -17.96475285 16.10770577 -17.2109375 10.50793457 C-13.71687306 2.98225731 -8.11362412 0.00974945 0 0 Z " fill="#000000" transform="translate(257.2109375,415.4920654296875)"/>
</svg>
