<?xml version="1.0" encoding="UTF-8" standalone="no"?>
<svg
   version="1.1"
   id="svg1"
   width="2897.3333"
   height="2762.6667"
   viewBox="0 0 2897.3333 2762.6667"
   xmlns="http://www.w3.org/2000/svg"
   xmlns:svg="http://www.w3.org/2000/svg">
  <defs id="defs1" />
  <g id="g1">
    <g id="group-R5">
      <path
         id="path2"
         d="m 17575.4,16068.9 c -70.4,30 -140.5,57.8 -210.4,84.5 -10,3.8 -19.9,7.4 -29.9,11.1 -67.9,25.4 -135.7,49.7 -203.2,72.2 h -0.1 c -1612.2,537.1 -3095.3,220.6 -4214.2,-507.6 -440.2,-286.4 -927.6,-471.1 -1428.8,-555.1 61.5,1436.1 898.2,2414.5 1540.7,2958.4 284.4,240.7 331.4,664 106,960.6 l -8.7,11.4 c -244,319.7 -708.2,369 -1014.6,108.7 -209.7,-178.2 -434.1,-390.9 -654.2,-638.8 -143.3,-161.5 -275.5,-327.7 -397.2,-498 -57.8,131.7 -124,256.2 -190.6,366.5 -123.9,205.3 -404.1,497.4 -592.1,646.3 -290.92,230.6 -680.8,291.6 -1051.94,299.3 -371.15,7.9 -746.39,-29 -1111.2,39.7 -182.41,34.4 -365.39,101.6 -521.07,202.8 -179.89,116.9 -419.48,-6.6 -416.41,-221.1 15.97,-1114.1 653.03,-2219.2 1642.98,-2744.3 435.11,-230.8 942.88,-353.2 1426.04,-283.4 -104.7,-381.5 -164.9,-774.8 -180,-1176.7 -442.44,94.6 -871.06,269.1 -1262.38,523.7 -1220.87,794.5 -2875.25,1099.7 -4657.87,339.8 C 1615.03,14989.8 458.656,12639.4 721.285,9952.9 856.012,8574.7 1205.93,7265.6 1783.85,6095.9 l -1,0.5 c 41.58,-84.2 84.7,-167.4 128.65,-250.1 9.3,-17.5 18.65,-35 28.06,-52.4 43.33,-80.3 87.5,-160.1 133.09,-239 l 4.04,-7.1 c 47.65,-82.3 96.81,-163.5 146.93,-244.1 9.93,-15.9 20.03,-31.8 30.05,-47.7 43.88,-69.6 88.63,-138.5 134.38,-206.8 7.58,-11.3 14.96,-22.7 22.59,-34 52.76,-78 106.78,-155.1 162,-231.3 9.08,-12.5 18.4,-24.9 27.55,-37.4 47.72,-65.1 96.39,-129.6 145.93,-193.4 11.53,-14.8 22.95,-29.7 34.57,-44.5 58.24,-74 117.5,-147.3 178.22,-219.4 4.95,-5.9 10.08,-11.6 15.05,-17.5 55.65,-65.8 112.54,-130.6 170.27,-194.7 14.05,-15.6 28.11,-31.2 42.28,-46.7 126.63,-138.6 258.19,-273.4 394.76,-404.1 15.36,-14.7 30.87,-29.2 46.36,-43.8 60.26,-56.8 121.4,-112.9 183.58,-168.1 9.64,-8.6 19.07,-17.3 28.76,-25.9 71.04,-62.4 143.46,-123.8 216.98,-184.2 15.13,-12.4 30.52,-24.6 45.75,-36.9 62.1,-50.3 125.08,-99.8 188.93,-148.5 15.72,-12 31.27,-24.2 47.1,-36.1 76.42,-57.5 153.96,-114 232.88,-169.3 11.83,-8.3 23.96,-16.3 35.86,-24.6 68.53,-47.4 138.07,-94 208.47,-139.8 19.53,-12.7 39.04,-25.4 58.72,-38 82.42,-52.7 165.72,-104.6 250.68,-154.9 l 3.34,-1.9 c 83.01,-49.1 167.65,-96.7 253.1,-143.5 21.74,-11.9 43.61,-23.7 65.51,-35.5 77.95,-41.9 156.77,-82.9 236.72,-122.9 10.58,-5.2 20.92,-10.7 31.53,-16 89.62,-44.3 180.75,-87.2 272.88,-129.1 22.14,-10 44.53,-19.8 66.81,-29.7 76.72,-34.2 154.3,-67.5 232.75,-99.9 19.85,-8.2 39.48,-16.6 59.44,-24.7 94.81,-38.4 190.86,-75.6 288.18,-111.5 19.74,-7.3 39.82,-14.2 59.67,-21.4 81.3,-29.4 163.51,-57.8 246.56,-85.4 25.27,-8.4 50.45,-16.9 75.89,-25.1 100.75,-32.6 202.48,-64.2 305.77,-94.1 11.28,-3.3 22.82,-6.3 34.13,-9.5 93.24,-26.7 187.68,-52 282.99,-76.5 28.25,-7.3 56.58,-14.4 85.02,-21.5 98.97,-24.5 198.82,-48.2 300.01,-70.3 8.6,-1.9 17.01,-4 25.62,-5.8 108.92,-23.6 219.49,-45.4 330.97,-66.2 29.26,-5.4 58.76,-10.6 88.2,-15.8 93.12,-16.6 187.1,-32.3 281.99,-46.9 22.67,-3.5 45.07,-7.3 67.83,-10.7 114.02,-16.9 229.39,-32.3 345.97,-46.3 27.51,-3.3 55.37,-6.2 83.02,-9.3 95.58,-10.9 192.03,-20.8 289.32,-29.7 30.01,-2.7 59.87,-5.6 90.04,-8.2 120.06,-10.2 241.22,-19.1 363.85,-26.2 20.55,-1.2 41.35,-2 61.95,-3.1 105.4,-5.7 211.8,-10.1 319,-13.6 34.2,-1.1 68.4,-2.1 102.8,-3 127,-3.2 254.9,-5.4 384.6,-5.4 6773.9,0 9662.2,4021.6 10139.6,8905.5 262.6,2686.5 -893.7,5036.9 -3425,6116"
         style="fill:#ef3231;fill-opacity:1;fill-rule:nonzero;stroke:none"
         transform="matrix(0.13333333,0,0,-0.13333333,0,2762.6667)" />
      <path
         id="path3"
         d="m 11060.8,18076.3 c -57.8,131.7 -124,256.2 -190.6,366.5 -123.9,205.3 -404.1,497.4 -592.1,646.3 -290.92,230.6 -680.8,291.6 -1051.94,299.3 -371.15,7.9 -746.39,-29 -1111.2,39.7 -182.41,34.4 -365.39,101.6 -521.07,202.8 -179.89,116.9 -419.48,-6.6 -416.41,-221.1 15.97,-1114.1 653.03,-2219.2 1642.98,-2744.3 435.11,-230.8 942.88,-353.2 1426.04,-283.4 92,13.3 183.2,32.8 272.8,60.7 889.8,277.3 805.2,1032.1 541.5,1633.5"
         style="fill:#42bc73;fill-opacity:1;fill-rule:nonzero;stroke:none"
         transform="matrix(0.13333333,0,0,-0.13333333,0,2762.6667)" />
      <path
         id="path4"
         d="m 17575.4,16068.9 c -70.4,30 -140.5,57.9 -210.4,84.5 -10,3.8 -19.9,7.4 -29.9,11.1 -67.9,25.4 -135.7,49.7 -203.2,72.2 h -0.1 c 206.8,-762.3 269.5,-1589.9 185.2,-2452.4 -477.4,-4883.9 -3365.7,-8905.4 -10139.54,-8905.4 -2157.33,0 -3947.6,444.8 -5394.61,1217.5 41.57,-84.2 84.7,-167.4 128.64,-250.1 9.31,-17.5 18.66,-35 28.07,-52.4 43.33,-80.3 87.5,-160.1 133.09,-239 l 4.04,-7.1 c 47.65,-82.3 96.81,-163.5 146.93,-244.1 9.93,-15.9 20.03,-31.8 30.05,-47.7 43.88,-69.6 88.63,-138.5 134.38,-206.8 7.58,-11.3 14.96,-22.7 22.59,-34 52.76,-78 106.78,-155.1 162,-231.3 9.08,-12.5 18.4,-24.9 27.55,-37.4 47.72,-65.1 96.39,-129.6 145.93,-193.4 11.53,-14.8 22.95,-29.7 34.57,-44.5 58.24,-74 117.49,-147.3 178.22,-219.4 4.95,-5.9 10.08,-11.6 15.05,-17.5 55.65,-65.8 112.53,-130.6 170.27,-194.7 14.04,-15.6 28.11,-31.2 42.27,-46.7 126.64,-138.6 258.2,-273.4 394.77,-404.1 15.36,-14.7 30.87,-29.2 46.36,-43.8 60.26,-56.8 121.4,-112.9 183.58,-168.1 9.64,-8.6 19.07,-17.3 28.76,-25.9 71.04,-62.4 143.46,-123.8 216.98,-184.2 15.13,-12.4 30.52,-24.6 45.75,-36.9 62.1,-50.3 125.08,-99.8 188.93,-148.5 15.72,-12 31.27,-24.2 47.1,-36.1 76.42,-57.5 153.96,-114 232.88,-169.3 11.83,-8.3 23.96,-16.3 35.86,-24.6 68.53,-47.4 138.07,-94 208.47,-139.8 19.53,-12.7 39.04,-25.4 58.72,-38 82.42,-52.7 165.72,-104.6 250.68,-154.9 l 3.34,-1.9 c 83.01,-49.1 167.65,-96.7 253.09,-143.5 21.75,-11.9 43.61,-23.7 65.52,-35.5 77.95,-41.9 156.77,-82.9 236.72,-122.9 10.58,-5.2 20.92,-10.7 31.53,-16 89.62,-44.3 180.75,-87.2 272.88,-129.1 22.14,-10 44.52,-19.8 66.81,-29.7 76.72,-34.2 154.3,-67.5 232.75,-99.9 19.85,-8.2 39.48,-16.6 59.44,-24.7 94.81,-38.4 190.86,-75.6 288.18,-111.5 19.74,-7.3 39.82,-14.2 59.67,-21.4 81.3,-29.4 163.51,-57.8 246.56,-85.4 25.26,-8.4 50.45,-16.9 75.89,-25.1 100.75,-32.6 202.47,-64.2 305.77,-94.1 11.28,-3.3 22.82,-6.3 34.13,-9.5 93.24,-26.7 187.68,-52 282.99,-76.5 28.25,-7.3 56.58,-14.4 85.02,-21.5 98.97,-24.5 198.82,-48.2 300.01,-70.3 8.6,-1.9 17,-4 25.62,-5.8 108.92,-23.6 219.49,-45.4 330.97,-66.1 29.26,-5.5 58.76,-10.7 88.2,-15.9 93.12,-16.6 187.1,-32.3 281.99,-46.9 22.67,-3.5 45.07,-7.3 67.83,-10.7 114.02,-16.9 229.39,-32.3 345.97,-46.3 27.51,-3.3 55.37,-6.2 83.02,-9.3 95.58,-10.9 192.03,-20.8 289.32,-29.7 30.01,-2.7 59.87,-5.6 90.04,-8.2 120.06,-10.2 241.21,-19.1 363.85,-26.2 20.55,-1.2 41.35,-2 61.95,-3.1 105.4,-5.7 211.8,-10.1 319,-13.6 34.2,-1.1 68.4,-2.1 102.8,-3 127,-3.2 254.9,-5.4 384.6,-5.4 6773.9,0 9662.2,4021.6 10139.6,8905.5 262.6,2686.5 -893.7,5036.9 -3425,6116"
         style="fill:#e82b28;fill-opacity:1;fill-rule:nonzero;stroke:none"
         transform="matrix(0.13333333,0,0,-0.13333333,0,2762.6667)" />
      <path
         id="path5"
         d="m 2371.75,9424.4 c 390.6,41.5 673.63,391.8 632.12,782.4 -284.11,2674 1783.19,3703.6 1876.04,3748.3 353.5,167 506.22,588.4 341.03,943.3 -165.75,356.1 -588.85,510.3 -944.95,344.6 -81.34,-37.8 -814.76,-393.1 -1507.61,-1196.8 -651.03,-755.1 -1384.03,-2060.3 -1179.05,-3989.7 38.79,-365 347.32,-636.1 706.41,-636.1 25.12,0 50.48,1.3 76.01,4"
         style="fill:#f24e54;fill-opacity:1;fill-rule:nonzero;stroke:none"
         transform="matrix(0.13333333,0,0,-0.13333333,0,2762.6667)" />
      <path
         id="path6"
         d="m 3305.61,8703.3 c -136.4,350.3 -516.26,539.1 -875.37,428 -395.32,-122.4 -601.77,-554.3 -451.84,-940 26.47,-68.1 54.5,-136.6 84.18,-205.7 144.97,-337.3 519.84,-505 862.88,-398.9 31.69,9.8 63.11,22 94.05,36.5 351.26,164.7 492.62,587.9 341.06,945 -19.24,45.3 -37.55,90.4 -54.96,135.1"
         style="fill:#f24e54;fill-opacity:1;fill-rule:nonzero;stroke:none"
         transform="matrix(0.13333333,0,0,-0.13333333,0,2762.6667)" />
      <path
         id="path7"
         d="m 10901,13787.9 c -34,-4.8 -67.7,-7.1 -100.9,-7.1 -359.1,0 -667.6,271.1 -706.4,636.1 -2.3,21.5 -4,43 -6.1,64.4 -459.27,-101.8 -773.31,-306.8 -773.31,-543.3 0,-338 640.63,-611.9 1430.91,-611.9 790.2,0 1430.8,273.9 1430.8,611.9 0,217.7 -266.3,408.8 -667,517.2 -21.2,-332 -269.7,-620.1 -608,-667.3"
         style="fill:#e82b28;fill-opacity:1;fill-rule:nonzero;stroke:none"
         transform="matrix(0.13333333,0,0,-0.13333333,0,2762.6667)" />
      <path
         id="path8"
         d="m 10087.6,14481.3 c 2.1,-21.4 3.8,-42.9 6.1,-64.4 38.8,-365 347.3,-636.1 706.4,-636.1 33.2,0 66.9,2.3 100.9,7.1 338.3,47.2 586.8,335.3 608,667.3 2.6,39.8 2.5,80.1 -1.7,120.9 -21.7,207.6 -26.7,406.7 -18.5,597.9 61.5,1436.1 898.2,2414.5 1540.7,2958.4 284.4,240.7 331.4,664 106,960.6 l -8.7,11.4 c -244,319.7 -708.2,369 -1014.6,108.7 -209.7,-178.2 -434.1,-390.9 -654.2,-638.8 -143.3,-161.5 -275.5,-327.7 -397.2,-498 263.7,-601.4 348.3,-1356.2 -541.5,-1633.5 -89.6,-27.9 -180.8,-47.4 -272.8,-60.7 -104.7,-381.5 -164.9,-774.8 -180,-1176.7 -9,-238.5 -2,-480.1 21.1,-724.1"
         style="fill:#3b2526;fill-opacity:1;fill-rule:nonzero;stroke:none"
         transform="matrix(0.13333333,0,0,-0.13333333,0,2762.6667)" />
      <path
         id="path9"
         d="m 11089.9,16859.2 h 1.2 c 15.2,0 27.8,12 28.4,27.3 0.6,15.7 -11.6,28.9 -27.3,29.5 -284.3,11.3 -568.8,83.4 -845.8,194 -41.7,78.4 -302.07,598.8 -259.35,1264.3 1.01,15.7 -10.89,29.2 -26.56,30.2 -16.09,0.7 -29.23,-10.9 -30.23,-26.6 -37.57,-585.1 154.34,-1061.4 236.64,-1235.7 -424.95,182 -829.42,453.1 -1184.22,739 l -2.84,8.6 c -3.11,5.5 -311.56,555.4 -265.33,1275.4 1,15.7 -10.88,29.2 -26.56,30.2 -16.17,1.1 -29.22,-10.8 -30.22,-26.5 -35.43,-551.7 133.24,-1006.9 221.61,-1203.2 -704.14,588.4 -1187.66,1207.1 -1196.68,1218.7 -9.59,12.4 -27.42,14.8 -39.9,5.2 -12.44,-9.7 -14.72,-27.5 -5.11,-39.9 12.39,-16.1 911.53,-1166.3 2055.91,-1831 -137.4,-51.1 -651.06,-217.9 -1260.27,-111.8 -15.61,2.5 -30.22,-7.7 -32.92,-23.2 -2.69,-15.5 7.67,-30.2 23.15,-32.9 145.02,-25.2 284.74,-35.4 415.66,-35.4 525.79,0 908.66,163.3 913.41,165.4 l 3.83,2.6 c 147.7,-82.8 299.08,-156.8 453.18,-219.3 5.2,-4.6 11.3,-7.8 18.1,-7.8 l 0.7,0.2 c 281.8,-112.5 571.6,-185.8 861.5,-197.3"
         style="fill:#379a60;fill-opacity:1;fill-rule:nonzero;stroke:none"
         transform="matrix(0.13333333,0,0,-0.13333333,0,2762.6667)" />
    </g>
  </g>
</svg>
